<svg width="71" height="54" viewBox="0 0 71 54" fill="none" xmlns="http://www.w3.org/2000/svg">
<rect y="0.5" width="71" height="45" rx="4" fill="white"/>
<rect opacity="0.2" x="23" y="8.5" width="26" height="3" rx="1.5" fill="#86888D"/>
<rect opacity="0.2" x="8" y="17.5" width="56" height="3" rx="1.5" fill="#86888D"/>
<rect opacity="0.2" x="8" y="23.5" width="56" height="3" rx="1.5" fill="#86888D"/>
<rect opacity="0.2" x="8" y="34.5" width="18" height="3" rx="1.5" fill="#86888D"/>
<path d="M66 43.5V51.5L61 48.989L56 51.5V43.5" stroke="#F8961E" stroke-width="3.5" stroke-linecap="round" stroke-linejoin="round"/>
<path d="M65.9497 33.5502C68.6834 36.2839 68.6834 40.7161 65.9497 43.4497C63.2161 46.1834 58.7839 46.1834 56.0502 43.4497C53.3166 40.7161 53.3166 36.2839 56.0502 33.5502C58.7839 30.8166 63.2161 30.8166 65.9497 33.5502" stroke="#F8961E" stroke-width="3.5" stroke-linecap="round" stroke-linejoin="round"/>
</svg>
